<?xml version="1.0" standalone="no"?>
<!DOCTYPE svg PUBLIC "-//W3C//DTD SVG 20010904//EN"
 "http://www.w3.org/TR/2001/REC-SVG-20010904/DTD/svg10.dtd">
<svg version="1.0" xmlns="http://www.w3.org/2000/svg"
 width="830.000000pt" height="1280.000000pt" viewBox="0 0 830.000000 1280.000000"
 preserveAspectRatio="xMidYMid meet">
<g transform="translate(0.000000,1280.000000) scale(0.100000,-0.100000)"
fill="#000000" stroke="none">
<path d="M3850 12780 c-312 -28 -483 -57 -745 -125 -1579 -409 -2781 -1728
-3039 -3335 -73 -448 -77 -759 -20 -1220 78 -624 328 -1271 699 -1810 40 -58
755 -1207 1590 -2555 1914 -3091 1805 -2915 1815 -2915 10 0 -99 -176 1815
2915 835 1348 1550 2497 1590 2555 371 539 621 1186 699 1810 57 461 53 772
-20 1220 -148 925 -616 1779 -1319 2409 -617 554 -1354 898 -2184 1021 -127
18 -512 50 -601 49 -47 -1 -173 -9 -280 -19z m550 -1734 c919 -115 1647 -808
1805 -1715 185 -1068 -486 -2108 -1532 -2377 -501 -128 -1039 -66 -1490 171
-803 423 -1242 1315 -1088 2206 144 830 777 1495 1599 1680 213 48 490 62 706
35z"/>
</g>
</svg>
