<?xml version="1.0" encoding="UTF-8" standalone="no"?>
<svg
   xmlns:dc="http://purl.org/dc/elements/1.1/"
   xmlns:cc="http://creativecommons.org/ns#"
   xmlns:rdf="http://www.w3.org/1999/02/22-rdf-syntax-ns#"
   xmlns:svg="http://www.w3.org/2000/svg"
   xmlns="http://www.w3.org/2000/svg"
   xmlns:sodipodi="http://sodipodi.sourceforge.net/DTD/sodipodi-0.dtd"
   xmlns:inkscape="http://www.inkscape.org/namespaces/inkscape"
   enable-background="new -0.258 -0.548 123.547 123.539"
   viewBox="-0.258 -0.548 123.547 123.539"
   version="1.1"
   id="svg18"
   sodipodi:docname="cross-country-skiing.svg"
   inkscape:version="0.92.2 (5c3e80d, 2017-08-06)">
  <metadata
     id="metadata24">
    <rdf:RDF>
      <cc:Work
         rdf:about="">
        <dc:format>image/svg+xml</dc:format>
        <dc:type
           rdf:resource="http://purl.org/dc/dcmitype/StillImage" />
      </cc:Work>
    </rdf:RDF>
  </metadata>
  <defs
     id="defs22" />
  <sodipodi:namedview
     pagecolor="#ffffff"
     bordercolor="#666666"
     borderopacity="1"
     objecttolerance="10"
     gridtolerance="10"
     guidetolerance="10"
     inkscape:pageopacity="0"
     inkscape:pageshadow="2"
     inkscape:window-width="1600"
     inkscape:window-height="845"
     id="namedview20"
     showgrid="false"
     inkscape:zoom="1.9103279"
     inkscape:cx="59.156147"
     inkscape:cy="61.769501"
     inkscape:window-x="0"
     inkscape:window-y="27"
     inkscape:window-maximized="1"
     inkscape:current-layer="svg18" />
  <path
     d="m110.07 122.87c8.156 0 14.773-6.609 14.773-14.766v-94.023c0-8.148-6.617-14.758-14.773-14.758h-94.015c-8.156 0-14.758 6.609-14.758 14.758v94.023c0 8.156 6.602 14.766 14.758 14.766h94.015z"
     fill="#231f20"
     id="path2"
     style="fill:#000000;fill-opacity:1" />
  <path
     d="m16.055 1.832c-6.758 0-12.258 5.5-12.258 12.25v94.023c0 6.758 5.5 12.266 12.258 12.266h94.016c6.766 0 12.266-5.508 12.266-12.266v-94.023c0-6.75-5.5-12.25-12.266-12.25h-94.016z"
     fill="#fff"
     id="path4"
     style="fill:#ffffff;fill-opacity:1" />
  <path
     d="m89.586 26.105c4.57 0 8.266-3.711 8.266-8.273s-3.695-8.266-8.266-8.266c-4.562 0-8.273 3.703-8.273 8.266s3.71 8.273 8.273 8.273z"
     fill="#231f20"
     id="path6"
     style="fill:#000000;fill-opacity:1" />
  <path
     d="m37.172,97.301-27.516-27.602 .016,4.82 25.609,25.711c2.938,3.188 7.984-.5 7.984-.5l-2.422-2.586c0,0-2.375,1.562-3.609.227l-.062-.07z"
     fill="#231f20"
     id="path8"
     style="fill:#000000;fill-opacity:1" />
  <path
     d="m9.891 45.246h28.156v3.359h-28.156z"
     fill="#231f20"
     id="path10"
     style="fill:#000000;fill-opacity:1" />
  <path
     d="m114.17 37.215 3.211 1.344-31.969 64.359h-3.539z"
     fill="#231f20"
     id="path12"
     style="fill:#000000;fill-opacity:1" />
  <path
     d="m61.125,32.246-12.867,14.859c-.758.938-1.922,1.516-3.211,1.516-2.312,0-4.164-1.859-4.164-4.156 0-1.242.539-2.352 1.406-3.117l13.867-15.969c.766-.914 1.914-1.508 3.203-1.508l20.086-.008c1.477,0 2.797.594 3.773,1.531l12.805,12.797 10.602-10.586c.75-.633 1.711-1.008 2.766-1.008 2.375,0 4.297,1.93 4.297,4.297 0,1.039-.359,1.977-.969,2.719l-12.789,12.891c-3.883,3.875-7.008.586-7.008.586l-7.852-7.883-12.265,14.188 11.242,11.242c0,0 2.367,2.195 1.016,6.578l-6.305,28.078c-.5,2.438-2.656,4.266-5.234,4.266-2.953,0-5.344-2.391-5.344-5.344 0-.461.047-.914.164-1.344l5.18-23.039-12.766-12.414-10.992,12.25c0,0-1.781,2.195-6.492,2.023l-22.274.039c-2.492.047-4.75-1.656-5.312-4.18-.656-2.883 1.125-5.703 4-6.344 .453-.102.906-.141 1.344-.125l19.164.055 28.336-32.852-7.407-.038z"
     fill="#231f20"
     id="path14"
     style="fill:#000000;fill-opacity:1" />
  <path
     d="m114.2 102.72c-8e-3 2.766-2.305 5-5.062 4.992h-82.313v3.391h82.297c4.641 0.023 8.422-3.688 8.445-8.352l-3.367-0.031z"
     fill="#231f20"
     id="path16"
     style="fill:#000000;fill-opacity:1" />
</svg>
