<?xml version="1.0" encoding="UTF-8" standalone="no"?>
<svg
   xmlns:dc="http://purl.org/dc/elements/1.1/"
   xmlns:cc="http://creativecommons.org/ns#"
   xmlns:rdf="http://www.w3.org/1999/02/22-rdf-syntax-ns#"
   xmlns:svg="http://www.w3.org/2000/svg"
   xmlns="http://www.w3.org/2000/svg"
   xmlns:sodipodi="http://sodipodi.sourceforge.net/DTD/sodipodi-0.dtd"
   xmlns:inkscape="http://www.inkscape.org/namespaces/inkscape"
   enable-background="new -0.258 -0.548 123.547 123.539"
   viewBox="-0.258 -0.548 123.547 123.539"
   version="1.1"
   id="svg14"
   sodipodi:docname="sailing.svg"
   inkscape:version="0.92.2 (5c3e80d, 2017-08-06)">
  <metadata
     id="metadata20">
    <rdf:RDF>
      <cc:Work
         rdf:about="">
        <dc:format>image/svg+xml</dc:format>
        <dc:type
           rdf:resource="http://purl.org/dc/dcmitype/StillImage" />
      </cc:Work>
    </rdf:RDF>
  </metadata>
  <defs
     id="defs18" />
  <sodipodi:namedview
     pagecolor="#ffffff"
     bordercolor="#666666"
     borderopacity="1"
     objecttolerance="10"
     gridtolerance="10"
     guidetolerance="10"
     inkscape:pageopacity="0"
     inkscape:pageshadow="2"
     inkscape:window-width="800"
     inkscape:window-height="845"
     id="namedview16"
     showgrid="false"
     inkscape:zoom="1.9103279"
     inkscape:cx="61.773499"
     inkscape:cy="61.769501"
     inkscape:window-x="0"
     inkscape:window-y="27"
     inkscape:window-maximized="0"
     inkscape:current-layer="svg14" />
  <path
     d="m109.65 122.9c8.148 0 14.766-6.617 14.766-14.773v-94.016c0-8.156-6.617-14.773-14.766-14.773h-94.015c-8.156 0-14.773 6.617-14.773 14.773v94.016c0 8.156 6.617 14.773 14.773 14.773h94.015z"
     id="path2"
     fill="#231f20"
     style="fill:#000000;fill-opacity:1" />
  <path
     d="m15.633 1.832c-6.766 0-12.266 5.516-12.266 12.281v94.016c0 6.766 5.5 12.258 12.266 12.258h94.016c6.758 0 12.25-5.492 12.25-12.258v-94.016c0-6.766-5.492-12.281-12.25-12.281h-94.016z"
     id="path4"
     fill="#fff" />
  <path
     d="m111.961,112.527c-2.125,0-4.195-.492-6.031-1.32-1.875-.883-4-1.391-6.219-1.391-2.203,0-4.328.508-6.203,1.391-1.859.828-3.906,1.32-6.055,1.32-2.125,0-4.203-.492-6.031-1.32-1.883-.883-4.008-1.391-6.227-1.391-2.195,0-4.32.508-6.203,1.391-1.852.828-3.906,1.32-6.055,1.32s-4.195-.492-6.031-1.32c-1.883-.883-4.008-1.391-6.219-1.391-2.219,0-4.344.508-6.219,1.391-1.836.828-3.898,1.32-6.047,1.32-2.133,0-4.195-.492-6.039-1.32-1.883-.883-4.008-1.391-6.219-1.391-2.203,0-4.328.508-6.211,1.391-1.844.828-3.891,1.32-6.039,1.32v-9.062c2.148,0 4.195-.484 6.039-1.32 1.883-.852 4.008-1.359 6.211-1.359 2.211,0 4.336.508 6.219,1.359 1.844.836 3.906,1.32 6.039,1.32 2.148,0 4.211-.484 6.047-1.32 1.875-.852 4-1.359 6.219-1.359 2.211,0 4.336.508 6.219,1.359 1.836.836 3.883,1.32 6.031,1.32s4.203-.484 6.055-1.32c1.883-.852 4.008-1.359 6.203-1.359 2.219,0 4.344.508 6.227,1.359 1.828.836 3.906,1.32 6.031,1.32 2.148,0 4.195-.484 6.055-1.32 1.875-.852 4-1.359 6.203-1.359 2.219,0 4.344.508 6.219,1.359 1.836.836 3.906,1.32 6.031,1.32v9.062z"
     fill="#231f20"
     id="path6"
     style="fill:#000000;fill-opacity:1" />
  <path
     d="m72.609 6.52v68.164h-55.828z"
     fill="#231f20"
     id="path8"
     style="fill:#000000;fill-opacity:1" />
  <path
     d="m77.906 22.238c16.43 7.641 35.938 28.008 33.375 52.445h-33.375v-52.445z"
     fill="#231f20"
     id="path10"
     style="fill:#000000;fill-opacity:1" />
  <path
     d="m104.227,79.613h-15.235-59.031v13.477c.836.219 1.664.461 2.422.828 1.844.805 3.906,1.297 6.039,1.297 2.148,0 4.211-.492 6.047-1.297 1.875-.875 4-1.391 6.219-1.391 2.211,0 4.336.516 6.219,1.391 1.836.805 3.883,1.297 6.031,1.297s4.203-.492 6.055-1.297c1.883-.875 4.008-1.391 6.203-1.391 2.219,0 4.344.516 6.227,1.391 1.828.805 3.906,1.297 6.031,1.297 .414,0 .805-.102 1.195-.148 .047,0 .047.047.094.047 .273,0 .469-.117.734-.117 .492-.07.977-.125 1.469-.242 4.391-.906 7.227-4.328 7.227-4.328l8.539-10.812h-2.485z"
     fill="#231f20"
     id="path12"
     style="fill:#000000;fill-opacity:1" />
</svg>
